# xmcd
#
# Track frame offsets:
# 150
# 18547
# 32237
# 49820
# 67182
# 82720
# 92947
# 110040
# 122457
# 134907
# 147155
# 164660
# 181125
# 196132
#
# Disc length: 2792 seconds
#
#
# Revision: 0
# Processed by: cddbd v1.5.2PL0 Copyright (c) Steve Scherf et al.
# Submitted via: Nero 7, 11, 10, 0 
#
DISCID=cb0ae60e
DTITLE=Bill Kirchen - Raise A Ruckus
DYEAR=1999
DGENRE=Blues
TTITLE0=Girlfriend
TTITLE1=Fly On Your Jacket
TTITLE2=Raise A Ruckus
TTITLE3=Man In The Bottom Of The Well
TTITLE4=Little Bitty Record
TTITLE5=Big Hat - No Cattle
TTITLE6=Flip Flop
TTITLE7=Dreamworld
TTITLE8=Let The Fire Burn Out
TTITLE9=She's A Yum Yum
TTITLE10=My Heart Has A Mind Of Its Own
TTITLE11=Livin' Dangerously
TTITLE12=True Love's The Treasure
TTITLE13=Interstate
EXTD=
EXTT0=Girlfriend
EXTT1=Fly On Your Jacket
EXTT2=Raise A Ruckus
EXTT3=Man In The Bottom Of The Well
EXTT4=Little Bitty Record
EXTT5=Big Hat - No Cattle
EXTT6=Flip Flop
EXTT7=Dreamworld
EXTT8=Let The Fire Burn Out
EXTT9=She's A Yum Yum
EXTT10=My Heart Has A Mind Of Its Own
EXTT11=Livin' Dangerously
EXTT12=True Love's The Treasure
EXTT13=Interstate
PLAYORDER=
